<svg xmlns="http://www.w3.org/2000/svg" width="119" height="119" viewBox="0 0 119 119">
  <g id="Group_89" data-name="Group 89" transform="translate(-1247 -1148)">
    <rect id="Rectangle_11" data-name="Rectangle 11" width="119" height="119" rx="20" transform="translate(1247 1148)" fill="#d9ebf6"/>
    <g id="Group_18" data-name="Group 18" transform="translate(1272.915 1172.862)">
      <g id="Group_11" data-name="Group 11" transform="translate(57.26 55.708)">
        <g id="Group_10" data-name="Group 10">
          <path id="Path_20" data-name="Path 20" d="M416.08,411.718a3.582,3.582,0,1,0,3.582,3.582A3.586,3.586,0,0,0,416.08,411.718Zm0,5.041a1.459,1.459,0,1,1,1.459-1.459A1.461,1.461,0,0,1,416.08,416.759Z" transform="translate(-412.498 -411.718)" fill="#072739"/>
        </g>
      </g>
      <g id="Group_13" data-name="Group 13" transform="translate(1.673 0)">
        <g id="Group_12" data-name="Group 12" transform="translate(0 0)">
          <path id="Path_21" data-name="Path 21" d="M70.494,59.1a9.39,9.39,0,0,0-3.126-6.792L46,33.036l18.9-18.9a2,2,0,0,0,.365-.146l4.092-2.16a1.993,1.993,0,0,0,.479-3.171L65.221,4.056a1.993,1.993,0,0,0-3.171.479l-2.16,4.092a2.014,2.014,0,0,0-.149.368l-8.919,8.919a1.062,1.062,0,0,0,1.5,1.5l8.185-8.185,2.145,2.145L41.722,34.307l-2.145-2.145,9.137-9.136a1.062,1.062,0,0,0-1.5-1.5l-6.629,6.629-7.215-6.507A16.3,16.3,0,0,0,12.125,1.081a1.062,1.062,0,0,0-.37,1.742l8.334,8.334a1.305,1.305,0,0,1,0,1.846l-5.412,5.412a1.305,1.305,0,0,1-1.846,0L4.5,10.081a1.062,1.062,0,0,0-1.742.37A16.3,16.3,0,0,0,22.991,31.8l5.578,6.1a5.727,5.727,0,0,1-7.187,2.733,1.061,1.061,0,0,0-1.135.239l-13,13A9.025,9.025,0,0,0,20.013,66.634l13-13a1.062,1.062,0,0,0,.239-1.135A5.74,5.74,0,0,1,40.68,45.07a1.061,1.061,0,0,0,1.135-.239l2.452-2.452a3.909,3.909,0,0,0,0-5.528l-1.044-1.044,1.27-1.27,21.453,19.35A7.352,7.352,0,1,1,55.6,64.31L39.645,46.867A1.062,1.062,0,1,0,38.078,48.3L54.029,65.743a9.393,9.393,0,0,0,6.781,3.078l.219,0A9.475,9.475,0,0,0,70.494,59.1ZM61.813,9.532l2.032-3.85L68.2,10.039l-3.85,2.032ZM24.087,29.854a1.062,1.062,0,0,0-1.154-.278,14.175,14.175,0,0,1-18.7-16.76l7.1,7.1a3.429,3.429,0,0,0,4.849,0L21.589,14.5a3.429,3.429,0,0,0,0-4.849l-7.1-7.1a14.178,14.178,0,0,1,16.647,19,1.061,1.061,0,0,0,.275,1.182l7.669,6.917-1,1-1.044-1.044a3.909,3.909,0,0,0-5.528,0l-2.452,2.452a1.062,1.062,0,0,0-.239,1.135,5.733,5.733,0,0,1,.384,2.239ZM42.766,40.879l-1.987,1.987a7.87,7.87,0,0,0-7.74,1.995h0a7.87,7.87,0,0,0-1.994,7.74L18.512,65.132a6.9,6.9,0,0,1-9.76-9.76L21.285,42.84a7.863,7.863,0,0,0,9.735-9.735l1.987-1.987a1.787,1.787,0,0,1,2.525,0l1.794,1.794,3.646,3.646,1.794,1.794A1.787,1.787,0,0,1,42.766,40.879Z" transform="translate(-1.673 0)" fill="#072739"/>
        </g>
      </g>
      <g id="Group_15" data-name="Group 15" transform="translate(11.542 46.539)">
        <g id="Group_14" data-name="Group 14">
          <path id="Path_22" data-name="Path 22" d="M86.482,344.263a1.062,1.062,0,0,0-1.5,0L74.925,354.318a1.062,1.062,0,0,0,1.5,1.5l10.056-10.056A1.062,1.062,0,0,0,86.482,344.263Z" transform="translate(-74.614 -343.952)" fill="#072739"/>
        </g>
      </g>
      <g id="Group_17" data-name="Group 17" transform="translate(15.258 50.254)">
        <g id="Group_16" data-name="Group 16">
          <path id="Path_23" data-name="Path 23" d="M113.941,371.722a1.062,1.062,0,0,0-1.5,0l-10.056,10.055a1.062,1.062,0,0,0,1.5,1.5l10.056-10.056A1.062,1.062,0,0,0,113.941,371.722Z" transform="translate(-102.073 -371.411)" fill="#072739"/>
        </g>
      </g>
    </g>
  </g>
</svg>
