<svg xmlns="http://www.w3.org/2000/svg" width="119" height="119" viewBox="0 0 119 119">
  <g id="Group_88" data-name="Group 88" transform="translate(-279 -1148)">
    <rect id="Rectangle_5" data-name="Rectangle 5" width="119" height="119" rx="20" transform="translate(279 1148)" fill="#d9ebf6"/>
    <g id="Group_7" data-name="Group 7" transform="translate(303 1101.026)">
      <g id="Group_6" data-name="Group 6" transform="translate(0 80.41)">
        <path id="Path_4" data-name="Path 4" d="M26.381,125.394H4.112a1.888,1.888,0,0,1-1.885-1.887V84.522a1.887,1.887,0,0,1,1.885-1.885H49.647a1.113,1.113,0,0,0,0-2.227H4.112A4.116,4.116,0,0,0,0,84.522v38.986a4.117,4.117,0,0,0,4.112,4.113H9.3V130.2a2.345,2.345,0,0,0,2.343,2.343h9.836a2.346,2.346,0,0,0,2.343-2.343V127.62h2.562a1.113,1.113,0,0,0,0-2.227Zm-4.789,4.8a.116.116,0,0,1-.116.116H11.639a.116.116,0,0,1-.116-.116V127.62H21.592Z" transform="translate(0 -80.41)" fill="#072739"/>
        <path id="Path_5" data-name="Path 5" d="M246.652,80.41H229.606a1.113,1.113,0,1,0,0,2.227h17.046a1.887,1.887,0,0,1,1.885,1.885v38.986a1.888,1.888,0,0,1-1.885,1.887H206.34a1.113,1.113,0,0,0,0,2.227h20.6V130.2a2.346,2.346,0,0,0,2.343,2.343h9.837a2.345,2.345,0,0,0,2.343-2.343V127.62h5.185a4.117,4.117,0,0,0,4.112-4.113V84.522A4.117,4.117,0,0,0,246.652,80.41ZM239.24,130.2a.116.116,0,0,1-.116.116h-9.836a.116.116,0,0,1-.116-.116V127.62H239.24Z" transform="translate(-174.764 -80.41)" fill="#072739"/>
        <path id="Path_6" data-name="Path 6" d="M40.981,134.915a1.113,1.113,0,0,0-1.544-.308,15.9,15.9,0,1,0,5.1-2.234,1.113,1.113,0,0,0,.523,2.164,13.649,13.649,0,0,1,2.152-.339,2.589,2.589,0,0,0-.039.427v9.345a4.05,4.05,0,0,0-.868.36L39.7,137.723a2.606,2.606,0,0,0-.331-.275,13.872,13.872,0,0,1,1.305-.989A1.113,1.113,0,0,0,40.981,134.915ZM34.6,148.961a2.6,2.6,0,0,0,.427.039h9.345a4.052,4.052,0,0,0,.36.868l-6.607,6.607a2.583,2.583,0,0,0-.271.326A13.675,13.675,0,0,1,34.6,148.961Zm14.93-14.622a1.124,1.124,0,0,1,.3-.1,13.667,13.667,0,0,1,7.016,2.914.827.827,0,0,1,.143.275.372.372,0,0,1-.111.291l-6.608,6.608a4.05,4.05,0,0,0-.868-.36v-9.345A.381.381,0,0,1,49.529,134.339ZM61.548,149a.381.381,0,0,1,.287.128.7.7,0,0,1,.1.3,13.667,13.667,0,0,1-2.917,7.018.629.629,0,0,1-.273.139.375.375,0,0,1-.291-.111l-6.608-6.607A4.053,4.053,0,0,0,52.2,149Zm-21.815,9.619c-.061-.137-.142-.214-.146-.278a.372.372,0,0,1,.111-.291l6.607-6.607a4.045,4.045,0,0,0,.868.36v9.345a.381.381,0,0,1-.128.287.848.848,0,0,1-.3.1A13.662,13.662,0,0,1,39.733,158.619Zm9.667,2.529V151.8a4.06,4.06,0,0,0,.868-.36l6.608,6.607a2.6,2.6,0,0,0,.325.272,13.673,13.673,0,0,1-7.84,3.254A2.606,2.606,0,0,0,49.4,161.148Zm-1.113-15.107a1.846,1.846,0,1,1-1.846,1.846A1.848,1.848,0,0,1,48.287,146.041Zm13.69.772a2.6,2.6,0,0,0-.429-.039H52.2a4.051,4.051,0,0,0-.36-.868l6.608-6.608a2.6,2.6,0,0,0,.272-.326A13.671,13.671,0,0,1,61.977,146.813Zm-17.246-.907a4.053,4.053,0,0,0-.36.868H35.026a.38.38,0,0,1-.286-.128.553.553,0,0,1-.1-.293,13.7,13.7,0,0,1,2.894-7.011h0a.882.882,0,0,1,.294-.154.371.371,0,0,1,.291.111Z" transform="translate(-27.531 -124.282)" fill="#072739"/>
        <path id="Path_7" data-name="Path 7" d="M280.351,163.842a15.958,15.958,0,1,0-15.958-15.958A15.976,15.976,0,0,0,280.351,163.842Zm8.562-26.684a.584.584,0,0,1,.138.272.372.372,0,0,1-.111.291l-6.608,6.608a4.052,4.052,0,0,0-.868-.36v-9.345a.381.381,0,0,1,.128-.287.619.619,0,0,1,.3-.1A13.665,13.665,0,0,1,288.913,137.158Zm4.7,11.84a.381.381,0,0,1,.287.128,1.06,1.06,0,0,1,.1.3,13.667,13.667,0,0,1-2.914,7.015.9.9,0,0,1-.276.143.376.376,0,0,1-.291-.111l-6.608-6.608a4.044,4.044,0,0,0,.36-.868h9.345Zm-21.818,9.618a.993.993,0,0,1-.144-.277.372.372,0,0,1,.111-.291l6.607-6.607a4.045,4.045,0,0,0,.868.36v9.345a.381.381,0,0,1-.128.287.8.8,0,0,1-.3.1A13.668,13.668,0,0,1,271.795,158.615Zm8.556-12.577a1.846,1.846,0,1,1-1.846,1.846A1.848,1.848,0,0,1,280.351,146.038Zm1.113,15.107V151.8a4.045,4.045,0,0,0,.868-.36l6.608,6.608a2.6,2.6,0,0,0,.325.272,13.672,13.672,0,0,1-7.84,3.254A2.59,2.59,0,0,0,281.464,161.145Zm-2.227-26.522v9.345a4.049,4.049,0,0,0-.868.36l-6.607-6.608a2.6,2.6,0,0,0-.326-.272,13.673,13.673,0,0,1,7.84-3.254A2.591,2.591,0,0,0,279.238,134.623Zm-9.341,4.561a.37.37,0,0,1,.291.111L276.8,145.9a4.045,4.045,0,0,0-.36.868H267.09a.38.38,0,0,1-.286-.128.6.6,0,0,1-.1-.3,13.667,13.667,0,0,1,2.915-7.018A.725.725,0,0,1,269.9,139.184ZM267.09,149h9.345a4.053,4.053,0,0,0,.36.868l-6.607,6.607a2.6,2.6,0,0,0-.272.326,13.672,13.672,0,0,1-3.254-7.84A2.59,2.59,0,0,0,267.09,149Zm26.951-2.188a2.606,2.606,0,0,0-.428-.039h-9.345a4.057,4.057,0,0,0-.36-.868l6.608-6.608a2.6,2.6,0,0,0,.272-.326A13.674,13.674,0,0,1,294.041,146.81Z" transform="translate(-225.147 -124.279)" fill="#072739"/>
        <path id="Path_8" data-name="Path 8" d="M225.234,334.166h7.2a1.113,1.113,0,1,0,0-2.227h-7.2a1.113,1.113,0,0,0,0,2.227Z" transform="translate(-190.853 -294.603)" fill="#072739"/>
      </g>
    </g>
  </g>
</svg>
