<svg xmlns="http://www.w3.org/2000/svg" width="119" height="119" viewBox="0 0 119 119">
  <g id="Group_67" data-name="Group 67" transform="translate(-763 -1784)">
    <rect id="Rectangle_17" data-name="Rectangle 17" width="119" height="119" rx="20" transform="translate(763 1784)" fill="#f5943a"/>
    <g id="Group_28" data-name="Group 28" transform="translate(785.851 1743.997)">
      <path id="Path_26" data-name="Path 26" d="M52.273,112.7v-3.288a2.626,2.626,0,0,0-2.623-2.623H34.623A2.626,2.626,0,0,0,32,109.414V112.7a2.626,2.626,0,0,0,2.623,2.623H49.65A2.626,2.626,0,0,0,52.273,112.7Zm-17.979,0v-3.288a.329.329,0,0,1,.329-.329H49.65a.329.329,0,0,1,.329.329V112.7a.329.329,0,0,1-.329.329H34.623A.329.329,0,0,1,34.294,112.7Z" transform="translate(-27.106 -27.106)" fill="#fff"/>
      <path id="Path_27" data-name="Path 27" d="M73.567,74.791H4.732A4.737,4.737,0,0,0,0,79.523v39.119a4.737,4.737,0,0,0,4.732,4.732H8.449v4.485a2.36,2.36,0,0,0,2.357,2.357H14a2.36,2.36,0,0,0,2.357-2.357v-5.632a1.147,1.147,0,0,0-1.147-1.147H4.732a2.44,2.44,0,0,1-2.438-2.438V79.523a2.44,2.44,0,0,1,2.438-2.438h35.04v5.967a1.147,1.147,0,0,0,2.294,0V77.085h31.5A2.44,2.44,0,0,1,76,79.523v39.119a2.44,2.44,0,0,1-2.437,2.438h-31.5V88.427a1.147,1.147,0,1,0-2.294,0v32.652H20.587a1.147,1.147,0,0,0,0,2.294H61.939v4.485a2.36,2.36,0,0,0,2.357,2.357h3.2a2.36,2.36,0,0,0,2.357-2.357v-4.485h3.718a4.737,4.737,0,0,0,4.731-4.732V79.523A4.737,4.737,0,0,0,73.567,74.791Zm-59.5,48.582v4.485a.063.063,0,0,1-.063.063h-3.2a.063.063,0,0,1-.063-.063v-4.485Zm53.49,4.485a.063.063,0,0,1-.063.063H64.3a.063.063,0,0,1-.063-.063v-4.485h3.322v4.485Z" fill="#fff"/>
      <path id="Path_28" data-name="Path 28" d="M91.929,323.9h8.989a1.147,1.147,0,1,0,0-2.294H91.929a1.147,1.147,0,1,0,0,2.294Z" transform="translate(-76.899 -209.072)" fill="#fff"/>
      <path id="Path_29" data-name="Path 29" d="M292.07,144.439a1.147,1.147,0,0,0,1.147,1.147h26.446a1.147,1.147,0,0,0,1.147-1.147v-36.5a1.147,1.147,0,0,0-1.147-1.147H293.217a1.147,1.147,0,0,0-1.147,1.147Zm16.542-35.354,9.9,9.9v7.22l-17.122-17.124Zm9.9,20.368v7.219l-5.2-5.2a8.7,8.7,0,0,0,1.741-5.479ZM312.77,126.3a6.211,6.211,0,0,1-1.1,3.529l-8.681-8.681a6.244,6.244,0,0,1,9.777,5.152Zm-2.718,5.151a6.244,6.244,0,0,1-8.681-8.681Zm-12.064-4.844-3.624-3.624v-7.219l5.365,5.365A8.7,8.7,0,0,0,297.988,126.609Zm13.438,16.682h-7.221l-9.842-9.84v-7.222Zm-17.063-6.6,6.6,6.6h-6.6Zm20.307,6.6-8.456-8.456a8.744,8.744,0,0,0,5.479-1.741l6.823,6.822v3.376h-3.845Zm3.845-27.548-6.659-6.659h6.659Zm-20.366-6.659,8.682,8.683a8.744,8.744,0,0,0-5.48,1.741l-6.988-6.987v-3.437Z" transform="translate(-247.405 -27.106)" fill="#fff"/>
      <g id="Group_27" data-name="Group 27" transform="translate(4.894 112.536)">
        <circle id="Ellipse_1" data-name="Ellipse 1" cx="1.147" cy="1.147" r="1.147" transform="translate(0 0)" fill="#fff"/>
        <circle id="Ellipse_2" data-name="Ellipse 2" cx="1.147" cy="1.147" r="1.147" transform="translate(4.702 0)" fill="#fff"/>
      </g>
    </g>
  </g>
</svg>
