<svg xmlns="http://www.w3.org/2000/svg" width="119" height="119" viewBox="0 0 119 119">
  <g id="Group_90" data-name="Group 90" transform="translate(-1247 -1784)">
    <rect id="Rectangle_18" data-name="Rectangle 18" width="119" height="119" rx="20" transform="translate(1247 1784)" fill="#f5943a"/>
    <g id="Group_29" data-name="Group 29" transform="translate(1271.068 1799.728)">
      <path id="Path_30" data-name="Path 30" d="M52.976,46.874a9.886,9.886,0,0,0-5-2.682l.278-.278a4.405,4.405,0,0,0,1.068-4.489l3.1-3.1A14.52,14.52,0,0,0,63.26,9.58a1.038,1.038,0,0,0-1.532.914V20.525a5.023,5.023,0,1,1-10.046,0v-1.9a1.038,1.038,0,1,0-2.076,0v1.9a7.1,7.1,0,1,0,14.2,0V12.388A12.45,12.45,0,0,1,65.15,31.149a12.391,12.391,0,0,1-12.7,3.018,1.039,1.039,0,0,0-1.059.252l-3.207,3.207a4.4,4.4,0,0,0-6.153.066l-2.947,2.947-4.06-4.06,9.264-9.263a1.038,1.038,0,0,0,.252-1.059A12.457,12.457,0,0,1,49.606,11.9V14.5a1.038,1.038,0,1,0,2.076,0V10.138A1.038,1.038,0,0,0,50.206,9.2a14.525,14.525,0,0,0-7.828,17.091l-8.823,8.823L19.2,20.753l.035-4.575a1.038,1.038,0,0,0-.576-.937L8.84,10.355a1.038,1.038,0,0,0-1.2.2L2.711,15.482a1.038,1.038,0,0,0-.2,1.2L7.4,26.5a1.05,1.05,0,0,0,.937.576l4.575-.035L27.27,41.394l-8.823,8.822A14.52,14.52,0,0,0,7.6,76.963a1.038,1.038,0,0,0,1.532-.913V66.019a5.023,5.023,0,1,1,10.046,0V76.406a1.038,1.038,0,0,0,1.477.941,14.525,14.525,0,0,0,7.828-17.091l3.1-3.1a4.4,4.4,0,0,0,4.491-1.068l.278-.278a9.887,9.887,0,0,0,2.682,5l7.842,7.841a1.038,1.038,0,1,0,1.468-1.468L40.5,59.348a7.812,7.812,0,0,1-2.277-5.408L46.1,46.067a7.808,7.808,0,0,1,5.408,2.277L64.1,60.939a7.78,7.78,0,0,1-11,11l-1.818-1.818a1.038,1.038,0,1,0-1.468,1.468l1.818,1.818a9.857,9.857,0,1,0,13.94-13.94ZM13.283,24.9a1.038,1.038,0,0,0-.349.06l-3.963.03L4.708,16.423l3.876-3.876,8.568,4.264-.03,3.963a1.039,1.039,0,0,0,.244,1.084l20.25,20.25-3.347,3.347L14.018,25.2a1.036,1.036,0,0,0-.734-.3ZM26.326,60.288a12.457,12.457,0,0,1-5.068,14.361v-8.63a7.1,7.1,0,1,0-14.2,0v8.137A12.45,12.45,0,0,1,5.714,55.4a12.39,12.39,0,0,1,12.7-3.018,1.038,1.038,0,0,0,1.059-.252l9.264-9.263L32.8,46.923l-2.947,2.947a4.4,4.4,0,0,0-.067,6.152l-3.208,3.208a1.038,1.038,0,0,0-.252,1.059Zm8.281-5.664a2.323,2.323,0,1,1-3.286-3.286L43.5,39.16a2.323,2.323,0,0,1,3.286,3.286Z" transform="translate(0 0)" fill="#fff"/>
    </g>
  </g>
</svg>
