<svg xmlns="http://www.w3.org/2000/svg" width="119" height="119" viewBox="0 0 119 119">
  <g id="Group_63" data-name="Group 63" transform="translate(-279 -1784)">
    <rect id="Rectangle_16" data-name="Rectangle 16" width="119" height="119" rx="20" transform="translate(279 1784)" fill="#f5943a"/>
    <g id="Group_26" data-name="Group 26" transform="translate(303.812 1808.103)">
      <g id="Group_23" data-name="Group 23" transform="translate(48.85 49.591)">
        <g id="Group_22" data-name="Group 22">
          <path id="Path_24" data-name="Path 24" d="M373.053,360.827a1.018,1.018,0,0,0-1.11.221l-11.128,11.128a1.018,1.018,0,0,0,.72,1.738h11.128a1.018,1.018,0,0,0,1.018-1.018V361.767A1.019,1.019,0,0,0,373.053,360.827Zm-9.06,11.051,7.652-7.652v7.652Z" transform="translate(-360.517 -360.749)" fill="#fff"/>
        </g>
      </g>
      <g id="Group_25" data-name="Group 25" transform="translate(0 0.82)">
        <g id="Group_24" data-name="Group 24" transform="translate(0 0)">
          <path id="Path_25" data-name="Path 25" d="M68.748,33.347a1.018,1.018,0,0,0-1.11.221l-3.05,3.05V15.881a1.018,1.018,0,0,0-1.018-1.018H55.746l2.84-2.84h0l2.737-2.737a3.105,3.105,0,0,0,0-4.391L58.159,1.729a3.105,3.105,0,0,0-4.391,0L51.031,4.467,47.722,7.776l-7.087,7.087H9.027V4.789A1.018,1.018,0,0,0,8.009,3.771,8.018,8.018,0,0,0,0,11.78v43.25a1.021,1.021,0,0,0,.024.219,7.713,7.713,0,0,0,7.69,7.127H38.83l-5.86,5.86a1.018,1.018,0,0,0,.72,1.738H68.358a1.018,1.018,0,0,0,1.018-1.018V34.287A1.019,1.019,0,0,0,68.748,33.347ZM55.209,3.169a1.069,1.069,0,0,1,1.511,0l3.165,3.165a1.07,1.07,0,0,1,0,1.511L57.866,9.863,53.191,5.187ZM51.751,6.627,56.426,11.3l-1.868,1.868L49.883,8.5Zm15.589,39.1H65.461a1.018,1.018,0,0,0,0,2.037H67.34v3.069H65.461a1.018,1.018,0,0,0,0,2.037H67.34v3.068H65.461a1.018,1.018,0,0,0,0,2.037H67.34v3.069H65.461a1.018,1.018,0,0,0,0,2.037H67.34v4.857H36.148L46.433,57.652a1.018,1.018,0,0,0-1.44-1.44l-4.127,4.127H7.714a5.645,5.645,0,0,1-5.672-5.494q.009-.29.045-.575v0q.017-.135.041-.269l.005-.03q.021-.119.048-.238l.015-.066q.023-.1.05-.2c.01-.036.02-.071.03-.107.015-.052.03-.1.047-.154s.034-.1.052-.152c.012-.035.025-.071.038-.106.025-.067.051-.133.078-.2l.023-.057c.035-.081.071-.162.109-.241l0-.01a6,6,0,0,1,4.167-3.258l.015,0c.084-.017.169-.032.255-.046l.043-.007c.077-.012.156-.021.234-.03l.066-.008c.075-.008.152-.013.228-.017l.072-.005q.15-.008.3-.008a1.018,1.018,0,0,0,1.018-1.018V40.655a1.018,1.018,0,1,0-2.037,0v6.429A7.953,7.953,0,0,0,2.416,49.3c-.132.129-.258.264-.38.4V11.78A5.983,5.983,0,0,1,6.99,5.894V36.582h0a1.018,1.018,0,1,0,2.037,0h0V16.9H38.6l-5.629,5.629a1.018,1.018,0,0,0,1.44,1.44L41.777,16.6h0l6.665-6.665,4.675,4.675-.549.549h0L32.035,35.693,27.36,31.018l4.047-4.047a1.018,1.018,0,0,0-1.44-1.44L25.2,30.3a1.022,1.022,0,0,0-.072.08l-.021.029c-.014.019-.028.038-.042.058l-.021.036c-.011.019-.022.038-.032.058s-.012.026-.018.039-.017.04-.025.061-.006.014-.009.021L22.976,36.3l-1.353,3.832a1.03,1.03,0,0,0-.04.155H18.2a1.018,1.018,0,1,0,0,2.037H46.4a1.018,1.018,0,0,0,0-2.037H26.164l6.21-2.192.015-.006c.024-.009.048-.019.071-.03l.028-.013c.024-.012.048-.026.072-.04l.023-.014c.025-.016.048-.033.072-.051l.018-.013a1.022,1.022,0,0,0,.082-.074L53.709,16.9h8.842V38.654L47.986,53.219a1.018,1.018,0,0,0,0,1.44,1.039,1.039,0,0,0,.077.07,1.018,1.018,0,0,0,1.363-.07h0L67.34,36.745ZM30.173,36.711l-2.917,1.03L25.313,35.8l1.03-2.917Z" transform="translate(0 -0.82)" fill="#fff"/>
        </g>
      </g>
    </g>
  </g>
</svg>
