<svg xmlns="http://www.w3.org/2000/svg" width="119" height="119" viewBox="0 0 119 119">
  <g id="Group_57" data-name="Group 57" transform="translate(-763 -1148)">
    <rect id="Rectangle_9" data-name="Rectangle 9" width="119" height="119" rx="20" transform="translate(763 1148)" fill="#d9ebf6"/>
    <g id="Group_9" data-name="Group 9" transform="translate(785.574 1176.906)">
      <g id="Group_8" data-name="Group 8" transform="translate(0 0)">
        <path id="Path_9" data-name="Path 9" d="M190.47,146.229a3.413,3.413,0,0,0,0-6.826H172.11a3.413,3.413,0,0,0,0,6.826Zm-19.609-3.413a1.251,1.251,0,0,1,1.249-1.25H190.47a1.25,1.25,0,0,1,0,2.5H172.11a1.251,1.251,0,0,1-1.249-1.249Z" transform="translate(-144.364 -119.295)" fill="#072739"/>
        <path id="Path_10" data-name="Path 10" d="M61.691,99.14H73.348a1.082,1.082,0,0,0,0-2.164H61.691a1.082,1.082,0,1,0,0,2.164Z" transform="translate(-51.867 -82.988)" fill="#072739"/>
        <path id="Path_11" data-name="Path 11" d="M61.691,66.814H73.348a1.082,1.082,0,0,0,0-2.164H61.691a1.082,1.082,0,1,0,0,2.164Z" transform="translate(-51.867 -55.325)" fill="#072739"/>
        <path id="Path_12" data-name="Path 12" d="M69.857,0H4A4,4,0,0,0,0,4V22.107a1.082,1.082,0,0,0,2.164,0V4A1.834,1.834,0,0,1,4,2.164H8.742V4.579A2.25,2.25,0,0,0,10.99,6.826H62.862A2.25,2.25,0,0,0,65.11,4.579V2.164h4.747A1.834,1.834,0,0,1,71.689,4v2.4a1.082,1.082,0,0,0,2.164,0V4a4,4,0,0,0-4-4ZM62.947,4.579a.084.084,0,0,1-.084.084H10.99a.084.084,0,0,1-.084-.084V2.164h52.04V4.579Z" transform="translate(0 0)" fill="#072739"/>
        <path id="Path_13" data-name="Path 13" d="M72.771,71.83a1.082,1.082,0,0,0-1.082,1.082V91.048a3.264,3.264,0,0,1-.964,2.326l-2.1,2.1a3.259,3.259,0,0,1-1.641.891l-.33-2.092A3.977,3.977,0,0,0,62.7,90.9H59.838l3.5-14.1a1.082,1.082,0,0,0-2.1-.521L57.609,90.9H56.168L52.541,76.278a1.082,1.082,0,0,0-2.1.521l3.5,14.1H11.149A3.977,3.977,0,0,0,7.2,94.275l-.33,2.092a3.26,3.26,0,0,1-1.642-.892l-2.1-2.1a3.264,3.264,0,0,1-.963-2.325V88.624a1.082,1.082,0,1,0-2.164,0v2.423A5.413,5.413,0,0,0,1.6,94.9L3.7,97a5.413,5.413,0,0,0,3.857,1.6h45.2l-.528,2.5H51.06a1.082,1.082,0,1,0,0,2.164h.958v2.124a2.54,2.54,0,0,0,1.457,2.293v4.056H46.4a6.334,6.334,0,0,0-6.328,6.327v2.477a1.082,1.082,0,0,0,2.164,0v-2.477A4.168,4.168,0,0,1,46.4,113.9h7.286a1.958,1.958,0,0,0,1.956-1.956v-4.019h2.5v4.309a4.168,4.168,0,0,1-4.164,4.164H46.689a1.958,1.958,0,0,0-1.956,1.956V134.24a1.082,1.082,0,0,0,2.164,0V118.565h7.078a6.334,6.334,0,0,0,6.327-6.327v-4.555a2.54,2.54,0,0,0,1.457-2.293v-2.124h.958a1.082,1.082,0,1,0,0-2.164H61.554l-.528-2.5H66.3a5.412,5.412,0,0,0,3.856-1.6l2.1-2.1a5.414,5.414,0,0,0,1.6-3.857V72.912a1.082,1.082,0,0,0-1.082-1.082ZM59.6,105.389a.376.376,0,0,1-.375.375H54.557a.376.376,0,0,1-.375-.375v-2.124h5.413v2.124ZM54.434,101.1l1.7-8.029h1.516l1.7,8.029ZM9.051,96.439l.288-1.827a1.824,1.824,0,0,1,1.81-1.547H53.921l-.713,3.374Zm50.806-3.373H62.7a1.824,1.824,0,0,1,1.81,1.547L64.8,96.44H60.569Z" transform="translate(0 -61.469)" fill="#072739"/>
        <path id="Path_14" data-name="Path 14" d="M64.022,146.229a3.413,3.413,0,1,0-3.413-3.413A3.417,3.417,0,0,0,64.022,146.229Zm0-4.663a1.25,1.25,0,1,1-1.25,1.25A1.251,1.251,0,0,1,64.022,141.566Z" transform="translate(-51.867 -119.295)" fill="#072739"/>
        <path id="Path_15" data-name="Path 15" d="M389.057,71.872v-8.16a1.082,1.082,0,1,0-2.164,0v8.16a1.082,1.082,0,1,0,2.164,0Z" transform="translate(-331.086 -53.596)" fill="#072739"/>
        <path id="Path_16" data-name="Path 16" d="M278.872,437.04a1.082,1.082,0,0,0-1.082,1.082v8.649a1.082,1.082,0,0,0,2.164,0v-8.649A1.082,1.082,0,0,0,278.872,437.04Z" transform="translate(-237.721 -374)" fill="#072739"/>
        <path id="Path_17" data-name="Path 17" d="M209.933,288.561h-.812v-.812a1.082,1.082,0,0,0-2.164,0v.812h-.812a1.082,1.082,0,0,0,0,2.164h.812v.813a1.082,1.082,0,0,0,2.164,0v-.812h.812a1.082,1.082,0,0,0,0-2.164Z" transform="translate(-175.484 -245.317)" fill="#072739"/>
        <path id="Path_18" data-name="Path 18" d="M67.5,316.846h-.813v-.812a1.082,1.082,0,1,0-2.164,0v.812h-.812a1.082,1.082,0,1,0,0,2.164h.812v.812a1.082,1.082,0,1,0,2.164,0v-.812H67.5a1.082,1.082,0,1,0,0-2.164Z" transform="translate(-53.596 -269.522)" fill="#072739"/>
        <path id="Path_19" data-name="Path 19" d="M149.725,387.557h-.812v-.812a1.082,1.082,0,1,0-2.164,0v.812h-.813a1.082,1.082,0,1,0,0,2.164h.813v.813a1.082,1.082,0,1,0,2.164,0v-.813h.812a1.082,1.082,0,1,0,0-2.164Z" transform="translate(-123.961 -330.034)" fill="#072739"/>
      </g>
    </g>
  </g>
</svg>
