<svg xmlns="http://www.w3.org/2000/svg" width="26.15" height="26.15" viewBox="0 0 26.15 26.15">
  <path id="Icon_metro-facebook" data-name="Icon metro-facebook" d="M24.363,1.928H6.929A4.358,4.358,0,0,0,2.571,6.287V23.72a4.358,4.358,0,0,0,4.358,4.359h8.717V16.638H12.377V13.369h3.269V10.917a4.086,4.086,0,0,1,4.086-4.086h4.086V10.1H19.732a.817.817,0,0,0-.817.817v2.452h4.495l-.817,3.269H18.915V28.078h5.448a4.358,4.358,0,0,0,4.358-4.359V6.287a4.358,4.358,0,0,0-4.358-4.359Z" transform="translate(-2.571 -1.928)" fill="#f8f9fa"/>
</svg>
