<svg xmlns="http://www.w3.org/2000/svg" width="27.268" height="27.268" viewBox="0 0 27.268 27.268">
  <path id="Icon_simple-instagram" data-name="Icon simple-instagram" d="M13.634,0C9.93,0,9.468.017,8.013.082A10.053,10.053,0,0,0,4.7.716,6.677,6.677,0,0,0,2.288,2.288,6.652,6.652,0,0,0,.716,4.7a10.024,10.024,0,0,0-.634,3.31C.014,9.468,0,9.93,0,13.634S.017,17.8.082,19.255a10.06,10.06,0,0,0,.634,3.31A6.686,6.686,0,0,0,2.288,24.98,6.667,6.667,0,0,0,4.7,26.552a10.066,10.066,0,0,0,3.31.634c1.454.068,1.917.082,5.621.082s4.166-.017,5.621-.082a10.089,10.089,0,0,0,3.31-.634,6.968,6.968,0,0,0,3.988-3.988,10.06,10.06,0,0,0,.634-3.31c.068-1.454.082-1.917.082-5.621s-.017-4.166-.082-5.621a10.083,10.083,0,0,0-.634-3.31A6.692,6.692,0,0,0,24.98,2.288,6.643,6.643,0,0,0,22.564.716a10.03,10.03,0,0,0-3.31-.634C17.8.014,17.338,0,13.634,0Zm0,2.454c3.639,0,4.073.018,5.51.081a7.512,7.512,0,0,1,2.53.472,4.487,4.487,0,0,1,2.588,2.587,7.528,7.528,0,0,1,.469,2.53c.065,1.438.08,1.87.08,5.51s-.017,4.073-.084,5.51a7.673,7.673,0,0,1-.478,2.53,4.329,4.329,0,0,1-1.021,1.57,4.254,4.254,0,0,1-1.568,1.018,7.583,7.583,0,0,1-2.539.469c-1.447.065-1.874.08-5.521.08s-4.074-.017-5.521-.084a7.731,7.731,0,0,1-2.54-.478,4.222,4.222,0,0,1-1.567-1.021A4.14,4.14,0,0,1,2.949,21.66a7.738,7.738,0,0,1-.477-2.539c-.051-1.432-.069-1.874-.069-5.5s.018-4.074.069-5.523a7.729,7.729,0,0,1,.477-2.538A4.042,4.042,0,0,1,3.972,3.987a4.033,4.033,0,0,1,1.567-1.02,7.546,7.546,0,0,1,2.523-.478c1.449-.051,1.875-.068,5.521-.068l.051.034Zm0,4.179a7,7,0,1,0,7,7A7,7,0,0,0,13.634,6.633Zm0,11.546a4.545,4.545,0,1,1,4.545-4.545A4.543,4.543,0,0,1,13.634,18.179ZM22.548,6.357a1.636,1.636,0,1,1-1.636-1.635A1.637,1.637,0,0,1,22.548,6.357Z" fill="#f8f9fa"/>
</svg>
